<mxfile host="app.diagrams.net" modified="2021-03-16T07:29:41.868Z" agent="5.0 (Windows NT 10.0; Win64; x64) AppleWebKit/537.36 (KHTML, like Gecko) Chrome/89.0.4389.82 Safari/537.36" etag="OZG6AAzkk-G3EU9W_X1C" version="13.10.3" type="github">
  <diagram id="m3Fo96L9rzILhU_9K1ed" name="Page-1">
    <mxGraphModel dx="2412" dy="688" grid="1" gridSize="10" guides="1" tooltips="1" connect="1" arrows="1" fold="1" page="1" pageScale="1" pageWidth="1100" pageHeight="850" math="0" shadow="0">
      <root>
        <mxCell id="0" />
        <mxCell id="1" parent="0" />
        <mxCell id="yPERHreIGKtpgYHbTxHh-1" value="광원 API" style="shape=umlLifeline;perimeter=lifelinePerimeter;container=1;collapsible=0;recursiveResize=0;rounded=0;shadow=0;strokeWidth=1;fontSize=12;fontStyle=1" vertex="1" parent="1">
          <mxGeometry x="122.13" y="140" width="120" height="760" as="geometry" />
        </mxCell>
        <mxCell id="yPERHreIGKtpgYHbTxHh-2" value="" style="points=[];perimeter=orthogonalPerimeter;rounded=0;shadow=0;strokeWidth=1;fontSize=12;fontStyle=1" vertex="1" parent="yPERHreIGKtpgYHbTxHh-1">
          <mxGeometry x="54.5" y="71" width="11" height="149" as="geometry" />
        </mxCell>
        <mxCell id="yPERHreIGKtpgYHbTxHh-3" value="국세청" style="shape=umlLifeline;perimeter=lifelinePerimeter;container=1;collapsible=0;recursiveResize=0;rounded=0;shadow=0;strokeWidth=1;fontSize=12;fontStyle=1" vertex="1" parent="1">
          <mxGeometry x="529.13" y="140" width="100" height="760" as="geometry" />
        </mxCell>
        <mxCell id="yPERHreIGKtpgYHbTxHh-4" value="" style="points=[];perimeter=orthogonalPerimeter;rounded=0;shadow=0;strokeWidth=1;fontSize=12;fontStyle=1" vertex="1" parent="yPERHreIGKtpgYHbTxHh-3">
          <mxGeometry x="44.55000000000007" y="411" width="10.91" height="150" as="geometry" />
        </mxCell>
        <mxCell id="yPERHreIGKtpgYHbTxHh-5" value="SettleBank&#xa;Server" style="shape=umlLifeline;perimeter=lifelinePerimeter;container=1;collapsible=0;recursiveResize=0;rounded=0;shadow=0;strokeWidth=1;size=40;fontSize=12;fontStyle=1" vertex="1" parent="1">
          <mxGeometry x="332.13" y="140" width="100" height="760" as="geometry" />
        </mxCell>
        <mxCell id="yPERHreIGKtpgYHbTxHh-7" value="" style="points=[];perimeter=orthogonalPerimeter;rounded=0;shadow=0;strokeWidth=1;fontSize=12;fontStyle=1" vertex="1" parent="yPERHreIGKtpgYHbTxHh-5">
          <mxGeometry x="45" y="270" width="10" height="129" as="geometry" />
        </mxCell>
        <mxCell id="yPERHreIGKtpgYHbTxHh-9" value="" style="points=[];perimeter=orthogonalPerimeter;rounded=0;shadow=0;strokeWidth=1;fontSize=12;fontStyle=1" vertex="1" parent="yPERHreIGKtpgYHbTxHh-5">
          <mxGeometry x="44.55" y="597" width="10.91" height="150" as="geometry" />
        </mxCell>
        <mxCell id="yPERHreIGKtpgYHbTxHh-10" value="" style="points=[];perimeter=orthogonalPerimeter;rounded=0;shadow=0;strokeWidth=1;fontSize=12;fontStyle=1" vertex="1" parent="yPERHreIGKtpgYHbTxHh-5">
          <mxGeometry x="45.46" y="70" width="10" height="170" as="geometry" />
        </mxCell>
        <mxCell id="yPERHreIGKtpgYHbTxHh-13" value="&lt;font style=&quot;font-size: 12px;&quot;&gt;&lt;span lang=&quot;EN-US&quot; style=&quot;line-height: 125%; font-family: &amp;quot;맑은 고딕&amp;quot;; font-size: 12px;&quot;&gt;⑥&lt;/span&gt;&amp;nbsp;결제하기 버튼 클릭&lt;/font&gt;" style="text;html=1;strokeColor=none;fillColor=none;align=center;verticalAlign=middle;whiteSpace=wrap;rounded=0;fontSize=12;fontStyle=1" vertex="1" parent="1">
          <mxGeometry x="-350" y="550" width="122.13" height="33" as="geometry" />
        </mxCell>
        <mxCell id="yPERHreIGKtpgYHbTxHh-14" value="&lt;font style=&quot;font-size: 12px&quot;&gt;&lt;span lang=&quot;EN-US&quot; style=&quot;line-height: 125% ; font-family: &amp;#34;맑은 고딕&amp;#34; ; font-size: 12px&quot;&gt;⑦&lt;/span&gt;&amp;nbsp;Rule/CRule &lt;br&gt;API 호출&amp;nbsp;&lt;/font&gt;→ 승인 요청" style="text;html=1;strokeColor=none;fillColor=none;align=center;verticalAlign=middle;whiteSpace=wrap;rounded=0;fontSize=12;fontStyle=1" vertex="1" parent="1">
          <mxGeometry x="-290.49" y="590" width="128.49" height="20" as="geometry" />
        </mxCell>
        <mxCell id="yPERHreIGKtpgYHbTxHh-15" value="&lt;span style=&quot;font-size: 12px;&quot;&gt;TMS&amp;nbsp; KEY TOKEN,&lt;br style=&quot;font-size: 12px;&quot;&gt;금액, 할부기간 전송&lt;br style=&quot;font-size: 12px;&quot;&gt;&lt;/span&gt;" style="rounded=0;whiteSpace=wrap;html=1;fontSize=12;fontStyle=1" vertex="1" parent="1">
          <mxGeometry x="-282.5" y="223" width="112.5" height="50" as="geometry" />
        </mxCell>
        <mxCell id="yPERHreIGKtpgYHbTxHh-17" value="" style="endArrow=classic;html=1;entryX=0.483;entryY=0.382;entryDx=0;entryDy=0;entryPerimeter=0;fontSize=12;fontStyle=1;exitX=1.034;exitY=0.153;exitDx=0;exitDy=0;exitPerimeter=0;" edge="1" parent="1" source="yPERHreIGKtpgYHbTxHh-7">
          <mxGeometry width="50" height="50" relative="1" as="geometry">
            <mxPoint x="390" y="430" as="sourcePoint" />
            <mxPoint x="578.4300000000001" y="430.32000000000005" as="targetPoint" />
            <Array as="points" />
          </mxGeometry>
        </mxCell>
        <mxCell id="yPERHreIGKtpgYHbTxHh-18" value="&lt;font style=&quot;font-size: 12px&quot;&gt;&lt;span lang=&quot;EN-US&quot; style=&quot;line-height: 125% ; font-family: &amp;#34;맑은 고딕&amp;#34; ; font-size: 12px&quot;&gt;⑧&amp;nbsp;&lt;/span&gt;승인결과 전송&lt;br style=&quot;font-size: 12px&quot;&gt;&lt;/font&gt;" style="text;html=1;strokeColor=none;fillColor=none;align=center;verticalAlign=middle;whiteSpace=wrap;rounded=0;fontSize=12;fontStyle=1" vertex="1" parent="1">
          <mxGeometry x="218.64" y="500" width="118" height="20" as="geometry" />
        </mxCell>
        <mxCell id="yPERHreIGKtpgYHbTxHh-20" value="&lt;font style=&quot;font-size: 12px;&quot;&gt;⑨ 카드 인식 화면 출력&amp;nbsp;&lt;/font&gt;" style="text;html=1;strokeColor=none;fillColor=none;align=center;verticalAlign=middle;whiteSpace=wrap;rounded=0;fontSize=12;fontStyle=1" vertex="1" parent="1">
          <mxGeometry x="-249.76" y="480" width="129.76" height="20" as="geometry" />
        </mxCell>
        <mxCell id="yPERHreIGKtpgYHbTxHh-22" value="" style="endArrow=classic;html=1;fontSize=12;fontStyle=1" edge="1" parent="1" target="yPERHreIGKtpgYHbTxHh-1">
          <mxGeometry width="50" height="50" relative="1" as="geometry">
            <mxPoint x="-27.870000000000005" y="572" as="sourcePoint" />
            <mxPoint x="127.12999999999977" y="572" as="targetPoint" />
          </mxGeometry>
        </mxCell>
        <mxCell id="yPERHreIGKtpgYHbTxHh-23" value="&lt;font style=&quot;font-size: 12px;&quot;&gt;&lt;span lang=&quot;EN-US&quot; style=&quot;line-height: 125%; font-family: &amp;quot;맑은 고딕&amp;quot;; font-size: 12px;&quot;&gt;⑩&lt;/span&gt;&amp;nbsp;카드 삽입&lt;/font&gt;" style="text;html=1;strokeColor=none;fillColor=none;align=center;verticalAlign=middle;whiteSpace=wrap;rounded=0;fontSize=12;fontStyle=1" vertex="1" parent="1">
          <mxGeometry x="-260" y="405" width="90" height="20" as="geometry" />
        </mxCell>
        <mxCell id="yPERHreIGKtpgYHbTxHh-24" value="" style="endArrow=classic;html=1;fontSize=12;fontStyle=1" edge="1" parent="1">
          <mxGeometry width="50" height="50" relative="1" as="geometry">
            <mxPoint x="178.13" y="589.3999999999999" as="sourcePoint" />
            <mxPoint x="573.6800000000002" y="589.3999999999999" as="targetPoint" />
          </mxGeometry>
        </mxCell>
        <mxCell id="yPERHreIGKtpgYHbTxHh-25" value="&lt;font style=&quot;font-size: 12px;&quot;&gt;&lt;span lang=&quot;EN-US&quot; style=&quot;line-height: 125%; font-family: &amp;quot;맑은 고딕&amp;quot;; font-size: 12px;&quot;&gt;⑪&lt;/span&gt;&amp;nbsp;소켓통신 → 결제요청&lt;/font&gt;" style="text;html=1;strokeColor=none;fillColor=none;align=center;verticalAlign=middle;whiteSpace=wrap;rounded=0;fontSize=12;fontStyle=1" vertex="1" parent="1">
          <mxGeometry x="218.13" y="598" width="135" height="20" as="geometry" />
        </mxCell>
        <mxCell id="yPERHreIGKtpgYHbTxHh-26" value="&lt;span style=&quot;font-size: 12px;&quot;&gt;카드, 결제, 터미널 VAN, 세금관련 정보 전송&lt;br style=&quot;font-size: 12px;&quot;&gt;&lt;/span&gt;" style="rounded=0;whiteSpace=wrap;html=1;fontSize=12;fontStyle=1" vertex="1" parent="1">
          <mxGeometry x="414.13" y="598" width="130.5" height="50" as="geometry" />
        </mxCell>
        <mxCell id="yPERHreIGKtpgYHbTxHh-27" value="" style="startArrow=none;startFill=0;startSize=7;endArrow=block;endFill=0;endSize=10;dashed=1;html=1;fontSize=12;fontStyle=1" edge="1" parent="1">
          <mxGeometry width="100" relative="1" as="geometry">
            <mxPoint x="573.6800000000002" y="667.8600000000001" as="sourcePoint" />
            <mxPoint x="178.13" y="667.8599999999999" as="targetPoint" />
            <Array as="points">
              <mxPoint x="404.94" y="667.86" />
            </Array>
          </mxGeometry>
        </mxCell>
        <mxCell id="yPERHreIGKtpgYHbTxHh-28" value="&lt;font style=&quot;font-size: 12px&quot;&gt;&amp;nbsp;⑫ 요청 결과 전송&lt;/font&gt;" style="text;html=1;strokeColor=none;fillColor=none;align=center;verticalAlign=middle;whiteSpace=wrap;rounded=0;fontSize=12;fontStyle=1" vertex="1" parent="1">
          <mxGeometry x="222.13" y="672" width="120" height="20" as="geometry" />
        </mxCell>
        <mxCell id="yPERHreIGKtpgYHbTxHh-29" value="&lt;span style=&quot;font-size: 12px;&quot;&gt;카드 정보 전송&lt;br style=&quot;font-size: 12px;&quot;&gt;&lt;/span&gt;" style="rounded=0;whiteSpace=wrap;html=1;fontSize=12;fontStyle=1" vertex="1" parent="1">
          <mxGeometry x="240.63" y="695" width="93" height="30" as="geometry" />
        </mxCell>
        <mxCell id="yPERHreIGKtpgYHbTxHh-30" value="" style="endArrow=classic;html=1;entryX=-0.046;entryY=0.14;entryDx=0;entryDy=0;entryPerimeter=0;fontSize=12;fontStyle=1" edge="1" parent="1" target="yPERHreIGKtpgYHbTxHh-9">
          <mxGeometry width="50" height="50" relative="1" as="geometry">
            <mxPoint x="178.13" y="758" as="sourcePoint" />
            <mxPoint x="322.13" y="758" as="targetPoint" />
          </mxGeometry>
        </mxCell>
        <mxCell id="yPERHreIGKtpgYHbTxHh-31" value="&lt;font style=&quot;font-size: 12px&quot;&gt;⑬ PUSH API 호출&lt;/font&gt;" style="text;html=1;strokeColor=none;fillColor=none;align=center;verticalAlign=middle;whiteSpace=wrap;rounded=0;fontSize=12;fontStyle=1" vertex="1" parent="1">
          <mxGeometry x="227.26" y="765" width="108.25" height="20" as="geometry" />
        </mxCell>
        <mxCell id="yPERHreIGKtpgYHbTxHh-32" value="&lt;font style=&quot;font-size: 12px&quot;&gt;&lt;span lang=&quot;EN-US&quot; style=&quot;line-height: 125% ; font-size: 12px&quot;&gt;⑭&lt;/span&gt;&amp;nbsp;결제결과 전송&lt;/font&gt;" style="text;html=1;strokeColor=none;fillColor=none;align=center;verticalAlign=middle;whiteSpace=wrap;rounded=0;fontSize=12;fontStyle=1" vertex="1" parent="1">
          <mxGeometry x="221.39" y="844" width="120" height="20" as="geometry" />
        </mxCell>
        <mxCell id="yPERHreIGKtpgYHbTxHh-33" value="" style="startArrow=none;startFill=0;startSize=7;endArrow=block;endFill=0;endSize=10;dashed=1;html=1;fontSize=12;fontStyle=1" edge="1" parent="1" source="yPERHreIGKtpgYHbTxHh-9">
          <mxGeometry width="100" relative="1" as="geometry">
            <mxPoint x="326.1781400000003" y="835.0500000000002" as="sourcePoint" />
            <mxPoint x="178.13" y="835" as="targetPoint" />
            <Array as="points">
              <mxPoint x="254.45" y="835" />
            </Array>
          </mxGeometry>
        </mxCell>
        <mxCell id="yPERHreIGKtpgYHbTxHh-34" value="&lt;span style=&quot;font-size: 12px;&quot;&gt;광원거래번호&lt;br style=&quot;font-size: 12px;&quot;&gt;(trxId) 전송&lt;br style=&quot;font-size: 12px;&quot;&gt;&lt;/span&gt;" style="rounded=0;whiteSpace=wrap;html=1;fontSize=12;fontStyle=1" vertex="1" parent="1">
          <mxGeometry x="239.13" y="870" width="93" height="30" as="geometry" />
        </mxCell>
        <mxCell id="yPERHreIGKtpgYHbTxHh-35" value="&lt;font style=&quot;font-size: 12px&quot;&gt;&lt;span lang=&quot;EN-US&quot; style=&quot;line-height: 125% ; font-size: 12px&quot;&gt;⑮&amp;nbsp;&lt;/span&gt;결제완료 화면 출력&lt;/font&gt;" style="text;html=1;strokeColor=none;fillColor=none;align=center;verticalAlign=middle;whiteSpace=wrap;rounded=0;fontSize=12;fontStyle=1" vertex="1" parent="1">
          <mxGeometry x="2.039999999999992" y="870" width="131.13" height="20" as="geometry" />
        </mxCell>
        <mxCell id="yPERHreIGKtpgYHbTxHh-36" value="" style="startArrow=none;startFill=0;startSize=7;endArrow=block;endFill=0;endSize=10;dashed=1;html=1;fontSize=12;fontStyle=1;" edge="1" parent="1" source="yPERHreIGKtpgYHbTxHh-1">
          <mxGeometry width="100" relative="1" as="geometry">
            <mxPoint x="168.13" y="857" as="sourcePoint" />
            <mxPoint x="-26.870000000000005" y="857" as="targetPoint" />
            <Array as="points">
              <mxPoint x="55.81" y="857" />
            </Array>
          </mxGeometry>
        </mxCell>
        <mxCell id="yPERHreIGKtpgYHbTxHh-37" value="&lt;span style=&quot;font-size: 12px;&quot;&gt;KEY TOKEN 값, &lt;br style=&quot;font-size: 12px;&quot;&gt;결제정보 전송&lt;/span&gt;&lt;span style=&quot;font-size: 12px;&quot;&gt;&lt;br style=&quot;font-size: 12px;&quot;&gt;&lt;/span&gt;" style="rounded=0;whiteSpace=wrap;html=1;fontSize=12;fontStyle=1" vertex="1" parent="1">
          <mxGeometry x="239.63" y="788" width="93" height="30" as="geometry" />
        </mxCell>
        <mxCell id="yPERHreIGKtpgYHbTxHh-39" value="" style="endArrow=classic;html=1;fontSize=12;fontStyle=1;exitX=1.015;exitY=0.044;exitDx=0;exitDy=0;exitPerimeter=0;" edge="1" parent="1" target="yPERHreIGKtpgYHbTxHh-10" source="yPERHreIGKtpgYHbTxHh-2">
          <mxGeometry width="50" height="50" relative="1" as="geometry">
            <mxPoint x="190" y="241" as="sourcePoint" />
            <mxPoint x="376.59000000000003" y="241.47000000000003" as="targetPoint" />
          </mxGeometry>
        </mxCell>
        <mxCell id="yPERHreIGKtpgYHbTxHh-40" value="&lt;font face=&quot;맑은 고딕&quot;&gt;현금영수증 등록/취소 API 호출&lt;/font&gt;" style="text;html=1;strokeColor=none;fillColor=none;align=center;verticalAlign=middle;whiteSpace=wrap;rounded=0;fontSize=12;fontStyle=1" vertex="1" parent="1">
          <mxGeometry x="209.6" y="250" width="145.06" height="20" as="geometry" />
        </mxCell>
        <mxCell id="yPERHreIGKtpgYHbTxHh-46" value="&lt;font style=&quot;font-size: 12px&quot;&gt;&lt;span lang=&quot;EN-US&quot; style=&quot;line-height: 125% ; font-family: &amp;#34;맑은 고딕&amp;#34; ; font-size: 12px&quot;&gt;①&amp;nbsp;&lt;/span&gt;현금영수증 API 호출&lt;/font&gt;" style="text;html=1;strokeColor=none;fillColor=none;align=center;verticalAlign=middle;whiteSpace=wrap;rounded=0;fontSize=12;fontStyle=1" vertex="1" parent="1">
          <mxGeometry x="8.909999999999997" y="203" width="112.75" height="20" as="geometry" />
        </mxCell>
        <mxCell id="yPERHreIGKtpgYHbTxHh-47" value="" style="endArrow=classic;html=1;fontSize=12;fontStyle=1;" edge="1" parent="1" target="yPERHreIGKtpgYHbTxHh-2">
          <mxGeometry width="50" height="50" relative="1" as="geometry">
            <mxPoint x="-27" y="234" as="sourcePoint" />
            <mxPoint x="169.20100000000025" y="234.45999999999998" as="targetPoint" />
            <Array as="points">
              <mxPoint x="-27" y="234" />
              <mxPoint x="-27" y="234" />
              <mxPoint x="53" y="234" />
            </Array>
          </mxGeometry>
        </mxCell>
        <mxCell id="yPERHreIGKtpgYHbTxHh-48" value="&lt;font style=&quot;font-size: 12px&quot;&gt;&lt;span lang=&quot;EN-US&quot; style=&quot;line-height: 125% ; font-family: &amp;#34;맑은 고딕&amp;#34; ; font-size: 12px&quot;&gt;② 등록결과 전송&lt;/span&gt;&lt;/font&gt;" style="text;html=1;strokeColor=none;fillColor=none;align=center;verticalAlign=middle;whiteSpace=wrap;rounded=0;fontSize=12;fontStyle=1" vertex="1" parent="1">
          <mxGeometry x="-8.210000000000015" y="280" width="151.63" height="20" as="geometry" />
        </mxCell>
        <mxCell id="yPERHreIGKtpgYHbTxHh-49" value="&lt;span style=&quot;font-size: 12px&quot;&gt;터미널,&amp;nbsp;&lt;/span&gt;&lt;span style=&quot;font-size: 12px&quot;&gt;VAN 정보 전송&lt;/span&gt;&lt;span style=&quot;font-size: 12px&quot;&gt;&lt;br style=&quot;font-size: 12px&quot;&gt;&lt;/span&gt;" style="rounded=0;whiteSpace=wrap;html=1;fontSize=12;fontStyle=1" vertex="1" parent="1">
          <mxGeometry x="205.7" y="523" width="151.37" height="30" as="geometry" />
        </mxCell>
        <mxCell id="yPERHreIGKtpgYHbTxHh-52" value="&lt;b&gt;가맹점&lt;/b&gt;" style="rounded=0;whiteSpace=wrap;html=1;" vertex="1" parent="1">
          <mxGeometry x="-90.00000000000001" y="140" width="120" height="40" as="geometry" />
        </mxCell>
        <mxCell id="yPERHreIGKtpgYHbTxHh-53" value="" style="endArrow=none;dashed=1;html=1;fontSize=12;fontStyle=1;entryX=0.509;entryY=0.991;entryDx=0;entryDy=0;entryPerimeter=0;" edge="1" parent="1">
          <mxGeometry width="50" height="50" relative="1" as="geometry">
            <mxPoint x="-26.86999999999989" y="900" as="sourcePoint" />
            <mxPoint x="-26.920000000000073" y="179.64" as="targetPoint" />
          </mxGeometry>
        </mxCell>
        <mxCell id="yPERHreIGKtpgYHbTxHh-55" value="요청 당일&lt;br&gt;실시간 응답" style="text;html=1;strokeColor=none;fillColor=none;align=center;verticalAlign=middle;whiteSpace=wrap;rounded=0;" vertex="1" parent="1">
          <mxGeometry x="-120" y="210" width="80" height="20" as="geometry" />
        </mxCell>
        <mxCell id="yPERHreIGKtpgYHbTxHh-58" value="D + 1" style="text;html=1;strokeColor=none;fillColor=none;align=center;verticalAlign=middle;whiteSpace=wrap;rounded=0;" vertex="1" parent="1">
          <mxGeometry x="-120" y="415" width="80" height="20" as="geometry" />
        </mxCell>
        <mxCell id="yPERHreIGKtpgYHbTxHh-59" value="&lt;span style=&quot;font-size: 12px&quot;&gt;승인번호&lt;br style=&quot;font-size: 12px&quot;&gt;&lt;/span&gt;" style="rounded=0;whiteSpace=wrap;html=1;fontSize=12;fontStyle=1" vertex="1" parent="1">
          <mxGeometry x="-3.15" y="309" width="151.37" height="30" as="geometry" />
        </mxCell>
        <mxCell id="yPERHreIGKtpgYHbTxHh-60" value="" style="endArrow=classic;html=1;fontSize=12;fontStyle=1;" edge="1" parent="1">
          <mxGeometry width="50" height="50" relative="1" as="geometry">
            <mxPoint x="176.5400000000001" y="648" as="sourcePoint" />
            <mxPoint x="-27.170000000000154" y="648" as="targetPoint" />
          </mxGeometry>
        </mxCell>
        <mxCell id="yPERHreIGKtpgYHbTxHh-61" value="&lt;font style=&quot;font-size: 12px;&quot;&gt;&lt;span lang=&quot;EN-US&quot; style=&quot;line-height: 125%; font-family: &amp;quot;맑은 고딕&amp;quot;; font-size: 12px;&quot;&gt;③&amp;nbsp;&lt;/span&gt;TMS KEY 토큰 값 발급&lt;/font&gt;" style="text;html=1;strokeColor=none;fillColor=none;align=center;verticalAlign=middle;whiteSpace=wrap;rounded=0;fontSize=12;fontStyle=1" vertex="1" parent="1">
          <mxGeometry x="-4.9200000000000035" y="540" width="145.06" height="20" as="geometry" />
        </mxCell>
        <mxCell id="yPERHreIGKtpgYHbTxHh-62" value="&lt;font style=&quot;font-size: 12px&quot;&gt;&lt;span lang=&quot;EN-US&quot; style=&quot;line-height: 125% ; font-family: &amp;#34;맑은 고딕&amp;#34; ; font-size: 12px&quot;&gt;④&amp;nbsp;&lt;/span&gt;TMS KEY 토큰 값 발급&lt;/font&gt;" style="text;html=1;strokeColor=none;fillColor=none;align=center;verticalAlign=middle;whiteSpace=wrap;rounded=0;fontSize=12;fontStyle=1" vertex="1" parent="1">
          <mxGeometry x="-3.552713678800501e-15" y="660" width="145.06" height="20" as="geometry" />
        </mxCell>
        <mxCell id="yPERHreIGKtpgYHbTxHh-63" value="" style="startArrow=none;startFill=0;startSize=7;endArrow=block;endFill=0;endSize=10;dashed=1;html=1;fontSize=12;fontStyle=1;exitX=0.02;exitY=0.396;exitDx=0;exitDy=0;exitPerimeter=0;" edge="1" parent="1" source="yPERHreIGKtpgYHbTxHh-2">
          <mxGeometry width="100" relative="1" as="geometry">
            <mxPoint x="172.03000000000011" y="270" as="sourcePoint" />
            <mxPoint x="-26.969999999999885" y="270.0000000000001" as="targetPoint" />
            <Array as="points">
              <mxPoint x="46.569999999999965" y="270" />
            </Array>
          </mxGeometry>
        </mxCell>
        <mxCell id="yPERHreIGKtpgYHbTxHh-64" value="" style="startArrow=none;startFill=0;startSize=7;endArrow=block;endFill=0;endSize=10;dashed=1;html=1;fontSize=12;fontStyle=1" edge="1" parent="1">
          <mxGeometry width="100" relative="1" as="geometry">
            <mxPoint x="365.2000000000001" y="489.9" as="sourcePoint" />
            <mxPoint x="188.07" y="490.02" as="targetPoint" />
            <Array as="points">
              <mxPoint x="239.73999999999998" y="489.9" />
            </Array>
          </mxGeometry>
        </mxCell>
        <mxCell id="yPERHreIGKtpgYHbTxHh-67" value="" style="endArrow=none;html=1;" edge="1" parent="1">
          <mxGeometry width="50" height="50" relative="1" as="geometry">
            <mxPoint x="-130" y="390" as="sourcePoint" />
            <mxPoint x="680" y="390" as="targetPoint" />
          </mxGeometry>
        </mxCell>
      </root>
    </mxGraphModel>
  </diagram>
</mxfile>
